<svg width="177" height="170" viewBox="0 0 177 170" fill="none" xmlns="http://www.w3.org/2000/svg">
<g clip-path="url(#clip0_1_216)">
<path d="M87.3015 40.3983H86.3392V14.8099C86.3392 10.8822 84.7322 7.11536 81.8719 4.33805C79.0115 1.56073 75.132 0.000457764 71.0868 0.000457764H15.2528C11.2077 0.000457764 7.32818 1.56073 4.46781 4.33805C1.60743 7.11536 0.000488281 10.8822 0.000488281 14.8099V155.19C0.000488281 159.118 1.60743 162.885 4.46781 165.662C7.32818 168.439 11.2077 170 15.2528 170H71.0866C75.1318 170 79.0112 168.439 81.8716 165.662C84.732 162.885 86.3389 159.118 86.3389 155.19V58.6125H87.3012L87.3015 40.3983Z" fill="#3F3D56"/>
<path d="M71.7022 3.85301H64.414C64.7494 4.65092 64.8774 5.51667 64.7869 6.37396C64.6965 7.23125 64.3902 8.05378 63.8952 8.76906C63.4001 9.48434 62.7315 10.0704 61.9482 10.4757C61.1648 10.8809 60.2909 11.0928 59.4034 11.0928H27.417C26.5295 11.0928 25.6557 10.8808 24.8725 10.4756C24.0893 10.0704 23.4208 9.48434 22.9258 8.76916C22.4308 8.05398 22.1245 7.23157 22.034 6.37439C21.9434 5.51721 22.0714 4.65157 22.4065 3.85371H15.5983C12.5773 3.85371 9.68005 5.01895 7.54388 7.09308C5.40771 9.16722 4.20764 11.9804 4.20764 14.9136V155.087C4.20764 158.02 5.40771 160.833 7.54388 162.908C9.68005 164.982 12.5773 166.147 15.5983 166.147H71.7C74.721 166.147 77.6183 164.982 79.7545 162.908C81.8906 160.833 83.0907 158.02 83.0907 155.087V14.9129C83.0907 11.9796 81.8906 9.16652 79.7545 7.09238C77.6183 5.01825 74.721 3.85301 71.7 3.85301H71.7022Z" fill="white"/>
<path d="M75.9558 31.4147H11.3457V138.585H75.9558V31.4147Z" fill="#E6E6E6"/>
<path d="M43.7466 158.314C47.2011 158.314 50.0015 155.594 50.0015 152.24C50.0015 148.886 47.2011 146.167 43.7466 146.167C40.2921 146.167 37.4917 148.886 37.4917 152.24C37.4917 155.594 40.2921 158.314 43.7466 158.314Z" fill="#E6E6E6"/>
<path d="M73.646 150.057L72.9315 156.764L76.9806 156.301L77.4569 150.751L73.646 150.057Z" fill="#FFB9B9"/>
<path d="M62.928 99.1771C62.928 99.1771 42.2055 118.604 55.3059 124.617H59.355C59.355 124.617 68.1679 110.508 72.4554 110.741L73.6463 124.155L72.9318 151.214L78.1719 151.445C78.1719 151.445 81.2684 137.8 81.0302 130.168L86.5085 101.952L62.928 99.1771Z" fill="#2F2E41"/>
<path d="M56.4963 123.692L59.3545 124.617C59.3545 124.617 70.5494 122.073 71.2629 122.305L73.4793 122.29L73.4072 116.754H63.8804L56.4963 123.692Z" fill="#2F2E41"/>
<path d="M77.4569 155.377C77.4569 155.377 73.1694 153.526 72.4549 155.377C71.7404 157.227 71.9786 162.546 71.9786 162.546C72.55 163.613 72.7186 164.84 72.4549 166.015C71.9786 167.865 74.3605 168.79 77.4569 167.865C80.5533 166.94 80.5533 164.627 80.5533 164.627L77.4569 155.377Z" fill="#2F2E41"/>
<path d="M81.0297 116.29C81.0297 116.29 84.3643 114.44 84.1261 117.215C83.9285 119.048 83.4466 120.842 82.6969 122.535C82.6969 122.535 85.7933 130.398 82.6969 131.092C79.6005 131.785 77.2186 130.167 77.2186 129.01C77.2186 127.854 81.0297 116.29 81.0297 116.29Z" fill="#2F2E41"/>
<path d="M70.5494 52.9228L71.026 61.7113L75.0751 65.1799L79.6007 58.9356V52.6916L70.5494 52.9228Z" fill="#FFB9B9"/>
<path d="M73.6458 61.7111L70.9191 59.7438L69.1204 62.4048L61.0219 67.0299L65.7853 79.0559L66.0235 90.8509C66.0235 90.8509 57.2105 99.6392 62.4507 100.796C67.6909 101.952 86.2696 104.496 87.2223 102.415C88.175 100.333 86.0315 78.8249 86.0315 78.8249L86.746 60.5544L79.6009 58.0459L73.6458 61.7111Z" fill="#FAA885"/>
<path d="M59.1163 76.3587C59.1163 76.3587 57.2107 89.4629 60.7837 89.4629C62.9056 89.47 65.0087 89.0773 66.9766 88.3067L64.1183 81.1372L65.3092 76.2804L59.1163 76.3587Z" fill="#FFB9B9"/>
<path d="M64.5947 87.8449L67.2148 88.3074C67.2148 88.3074 74.8368 83.6823 75.3132 83.4506C75.7895 83.2189 67.6911 79.2876 67.6911 79.2876L62.2128 81.3691L64.5947 87.8449Z" fill="#FFB9B9"/>
<path opacity="0.1" d="M67.6911 79.2876L64.2509 80.5945L65.3095 76.2811L59.1166 76.3584C59.1166 76.3584 57.2111 89.4627 60.784 89.4627C62.9059 89.4697 65.009 89.0771 66.9769 88.3064L66.9588 88.2611L67.215 88.3064C67.215 88.3064 74.8371 83.6814 75.3135 83.4497C75.7898 83.218 67.6911 79.2876 67.6911 79.2876Z" fill="black"/>
<path d="M76.0597 57.308C79.816 57.308 82.8612 54.3512 82.8612 50.704C82.8612 47.0567 79.816 44.1 76.0597 44.1C72.3033 44.1 69.2582 47.0567 69.2582 50.704C69.2582 54.3512 72.3033 57.308 76.0597 57.308Z" fill="#FFB9B9"/>
<path d="M70.0463 43.2537L68.7174 42.7372C68.7174 42.7372 71.496 39.7669 75.3618 40.0253L74.2744 38.8629C74.2744 38.8629 76.9323 37.8298 79.3484 40.5417C80.6186 41.9666 82.088 43.6431 83.0051 45.5307H84.4283L83.8343 46.8005L85.9126 48.071L83.7788 47.8427C83.9809 48.9391 83.9117 50.0664 83.5769 51.1317L83.6342 52.1361C83.6342 52.1361 81.1608 48.4204 81.1608 47.9039V49.1954C81.1608 49.1954 79.8319 48.0331 79.8319 47.2583L79.1071 48.1623L78.7436 46.7395L74.2737 48.16L74.9985 46.9976L72.2199 47.3851L73.3073 45.9647C73.3073 45.9647 70.1664 47.6435 70.0454 49.0642C69.9244 50.4848 68.3541 52.2926 68.3541 52.2926L67.6293 51.0011C67.6293 51.0011 66.5429 45.1908 70.0463 43.2537Z" fill="#2F2E41"/>
<path d="M81.9824 72.3496C80.7802 73.7916 80.1094 75.5826 80.0768 77.4376L67.4527 76.9751C67.4527 76.9751 64.1181 76.5126 64.1181 78.8253V81.1379C64.1181 81.1379 65.7855 80.4441 66.7382 81.1379C67.6909 81.8316 77.933 87.8449 82.935 85.5321C87.937 83.2194 89.1279 74.1998 89.1279 74.1998C89.1279 74.1998 84.6025 70.4994 81.9824 72.3496Z" fill="#FFB9B9"/>
<path d="M84.8418 60.7858L86.7474 60.5546C86.7474 60.5546 90.5583 61.0171 90.082 68.1866C89.6057 75.3561 89.3675 75.8186 89.3675 75.8186C89.3675 75.8186 84.3655 71.4244 80.7927 73.5061L84.8418 60.7858Z" fill="#FAA885"/>
<path d="M61.9746 67.031H61.0219C59.7876 68.545 59.1161 70.4194 59.1164 72.3503C59.0945 74.4184 58.8146 76.4763 58.2828 78.4789L65.7858 77.2071L61.9746 67.031Z" fill="#FAA885"/>
<path d="M177 31.4087H107.837V44.6674H177V31.4087Z" fill="#E6E6E6"/>
<path d="M109.312 43.2359H175.526V32.8413H109.312V43.2359Z" fill="white"/>
<path d="M115.108 33.9917C115.915 33.9917 116.703 34.224 117.374 34.6591C118.045 35.0943 118.568 35.7129 118.876 36.4366C119.185 37.1602 119.266 37.9566 119.108 38.7248C118.951 39.4931 118.563 40.1988 117.992 40.7526C117.422 41.3065 116.695 41.6837 115.904 41.8365C115.112 41.9894 114.292 41.9109 113.547 41.6112C112.802 41.3114 112.165 40.8038 111.716 40.1525C111.268 39.5012 111.029 38.7355 111.029 37.9522C111.029 36.9018 111.459 35.8944 112.224 35.1517C112.989 34.4089 114.026 33.9917 115.108 33.9917V33.9917Z" fill="#FAA885"/>
<path d="M165.118 36.4023H124.862V37.2633H165.118V36.4023Z" fill="#E6E6E6"/>
<path d="M165.118 38.6408H124.862V39.5018H165.118V38.6408Z" fill="#E6E6E6"/>
<path d="M177 50.3293H107.837V63.588H177V50.3293Z" fill="#E6E6E6"/>
<path d="M109.312 62.1565H175.526V51.7619H109.312V62.1565Z" fill="white"/>
<path d="M115.108 60.8333C117.361 60.8333 119.187 59.0601 119.187 56.8728C119.187 54.6855 117.361 52.9123 115.108 52.9123C112.855 52.9123 111.029 54.6855 111.029 56.8728C111.029 59.0601 112.855 60.8333 115.108 60.8333Z" fill="#FAA885"/>
<path d="M165.118 55.3229H124.862V56.1839H165.118V55.3229Z" fill="#E6E6E6"/>
<path d="M165.118 57.5614H124.862V58.4224H165.118V57.5614Z" fill="#E6E6E6"/>
<path d="M177 69.2499H107.837V82.5086H177V69.2499Z" fill="#E6E6E6"/>
<path d="M109.312 81.0771H175.526V70.6824H109.312V81.0771Z" fill="white"/>
<path d="M115.108 79.7538C117.361 79.7538 119.187 77.9807 119.187 75.7934C119.187 73.606 117.361 71.8329 115.108 71.8329C112.855 71.8329 111.029 73.606 111.029 75.7934C111.029 77.9807 112.855 79.7538 115.108 79.7538Z" fill="#FAA885"/>
<path d="M165.118 74.2435H124.862V75.1045H165.118V74.2435Z" fill="#E6E6E6"/>
<path d="M165.118 76.482H124.862V77.343H165.118V76.482Z" fill="#E6E6E6"/>
</g>
<defs>
<clipPath id="clip0_1_216">
<rect width="177" height="170" fill="white"/>
</clipPath>
</defs>
</svg>
